<svg width="41" height="30" viewBox="0 0 41 30" fill="none" xmlns="http://www.w3.org/2000/svg">
<path d="M0.5 5.64773V3.36364H10.3352V5.64773H6.80682V15H4.03409V5.64773H0.5ZM14.4872 10.0227V15H11.7088V3.36364H14.3963V7.875H14.4929C14.6899 7.33712 15.0118 6.91667 15.4588 6.61364C15.9096 6.31061 16.4607 6.15909 17.1122 6.15909C17.7259 6.15909 18.2599 6.29545 18.7145 6.56818C19.169 6.83712 19.5213 7.2178 19.7713 7.71023C20.0251 8.20265 20.1501 8.77841 20.1463 9.4375V15H17.3679V9.98295C17.3717 9.49811 17.2505 9.11932 17.0043 8.84659C16.758 8.57386 16.4115 8.4375 15.9645 8.4375C15.6728 8.4375 15.4152 8.50189 15.1918 8.63068C14.9721 8.75568 14.7997 8.93561 14.6747 9.17045C14.5535 9.4053 14.491 9.68939 14.4872 10.0227ZM25.9602 15.1648C25.0473 15.1648 24.2595 14.9848 23.5966 14.625C22.9375 14.2614 22.4299 13.7443 22.0739 13.0739C21.7216 12.3996 21.5455 11.5985 21.5455 10.6705C21.5455 9.76894 21.7235 8.98106 22.0795 8.30682C22.4356 7.62879 22.9375 7.10227 23.5852 6.72727C24.233 6.34848 24.9962 6.15909 25.875 6.15909C26.4962 6.15909 27.0644 6.25568 27.5795 6.44886C28.0947 6.64205 28.5398 6.92803 28.9148 7.30682C29.2898 7.68561 29.5814 8.15341 29.7898 8.71023C29.9981 9.26326 30.1023 9.89773 30.1023 10.6136V11.3068H22.517V9.69318H27.517C27.5133 9.39773 27.4432 9.13447 27.3068 8.90341C27.1705 8.67235 26.983 8.49242 26.7443 8.36364C26.5095 8.23106 26.2386 8.16477 25.9318 8.16477C25.6212 8.16477 25.3428 8.23485 25.0966 8.375C24.8504 8.51136 24.6553 8.69886 24.5114 8.9375C24.3674 9.17235 24.2917 9.43939 24.2841 9.73864V11.3807C24.2841 11.7367 24.3542 12.0492 24.4943 12.3182C24.6345 12.5833 24.8333 12.7898 25.0909 12.9375C25.3485 13.0852 25.6553 13.1591 26.0114 13.1591C26.2576 13.1591 26.4811 13.125 26.6818 13.0568C26.8826 12.9886 27.0549 12.8883 27.1989 12.7557C27.3428 12.6231 27.4508 12.4602 27.5227 12.267L30.0739 12.3409C29.9678 12.9129 29.7348 13.411 29.375 13.8352C29.0189 14.2557 28.5511 14.5833 27.9716 14.8182C27.392 15.0492 26.7216 15.1648 25.9602 15.1648ZM30.3281 5.64773V3.36364H40.1634V5.64773H36.6349V15H33.8622V5.64773H30.3281Z" fill="white"/>
<path d="M5.47727 19.598V18.2727H12.4403V19.598H9.7429V27H8.17472V19.598H5.47727ZM13.8487 27H12.1612L15.2337 18.2727H17.1854L20.2621 27H18.5746L16.2436 20.0625H16.1754L13.8487 27ZM13.9041 23.5781H18.5064V24.848H13.9041V23.5781ZM21.4116 27V18.2727H22.9925V25.6747H26.8363V27H21.4116ZM28.2085 27V18.2727H29.7894V22.2827H29.896L33.3008 18.2727H35.2312L31.8562 22.1889L35.261 27H33.3604L30.7567 23.2585L29.7894 24.4006V27H28.2085Z" fill="white"/>
</svg>
